<svg width="36" height="36" viewBox="0 0 36 36" fill="none" xmlns="http://www.w3.org/2000/svg">
<path d="M0 18C0 8.05888 8.05888 0 18 0C27.9411 0 36 8.05888 36 18C36 27.9411 27.9411 36 18 36C8.05888 36 0 27.9411 0 18Z" fill="white"/>
<path d="M0.5 18C0.5 8.33502 8.33502 0.5 18 0.5C27.665 0.5 35.5 8.33502 35.5 18C35.5 27.665 27.665 35.5 18 35.5C8.33502 35.5 0.5 27.665 0.5 18Z" stroke="black" stroke-opacity="0.12"/>
<path fill-rule="evenodd" clip-rule="evenodd" d="M10.2653 10.2653C9 11.5306 9 13.5671 9 17.64V18.36C9 22.4329 9 24.4694 10.2653 25.7347C11.5306 27 13.5671 27 17.64 27H18.36C22.4329 27 24.4694 27 25.7347 25.7347C27 24.4694 27 22.4329 27 18.36V17.64C27 13.5671 27 11.5306 25.7347 10.2653C24.4694 9 22.4329 9 18.36 9H17.64C13.5671 9 11.5306 9 10.2653 10.2653Z" fill="#0077FF"/>
<path d="M18.6095 22C14.5558 22 12.0964 19.1823 12 14.5H14.0531C14.1171 17.9395 15.679 19.397 16.8764 19.6967V14.5H18.8439V17.4683C19.9988 17.3401 21.2076 15.9899 21.614 14.5H23.5505C23.2406 16.3321 21.9246 17.6823 20.9948 18.2392C21.9253 18.6895 23.4225 19.8682 24 22H21.8714C21.4219 20.5749 20.321 19.4712 18.8446 19.3213V22H18.6095Z" fill="white"/>
</svg>
