<?xml version="1.0" encoding="utf-8"?>
<!DOCTYPE svg PUBLIC "-//W3C//DTD SVG 1.0//EN" "http://www.w3.org/TR/2001/REC-SVG-20010904/DTD/svg10.dtd">
<svg version="1.0" id="Layer_1" xmlns="http://www.w3.org/2000/svg" xmlns:xlink="http://www.w3.org/1999/xlink"
width="24" height="24" viewBox="0 0 960 960" xml:space="preserve">
    <g>
        <path
            fill="#FFFFFF"
            d="M376,660L480,556L584,660L640,604L536,500L640,396L584,340L480,444L376,340L320,396L424,500L320,604L376,660ZM280,840Q247,840 223.5,816.5Q200,793 200,760L200,240L160,240L160,160L360,160L360,120L600,120L600,160L800,160L800,240L760,240L760,760Q760,793 736.5,816.5Q713,840 680,840L280,840ZM680,240L280,240L280,760Q280,760 280,760Q280,760 280,760L680,760Q680,760 680,760Q680,760 680,760L680,240ZM280,240L280,240L280,760Q280,760 280,760Q280,760 280,760L280,760Q280,760 280,760Q280,760 280,760L280,240Z"
            stroke-width="1"/>
    </g>
</svg>