<?xml version="1.0" encoding="UTF-8"?>
<!-- Generated by Pixelmator Pro 3.5.8 -->
<svg width="40" height="40" viewBox="0 0 40 40" xmlns="http://www.w3.org/2000/svg">
    <path id="Path" fill="#ffffff" stroke="#e0e0e0" d="M 20 0.5 L 20 0.5 C 30.769552 0.5 39.5 9.230448 39.5 20 L 39.5 20 C 39.5 30.769552 30.769552 39.5 20 39.5 L 20 39.5 C 9.230448 39.5 0.5 30.769552 0.5 20 L 0.5 20 C 0.5 9.230448 9.230448 0.5 20 0.5 Z"/>
    <clipPath id="clipPath1">
        <path d="M 8 8 L 32.081633 8 L 32.081633 32.081633 L 8 32.081633 Z"/>
    </clipPath>
    <g id="Group" clip-path="url(#clipPath1)">
        <path id="path1" fill="#4285f4" stroke="none" d="M 31.6 20.314505 C 31.6 19.46069 31.52342 18.639746 31.381098 17.851557 L 20.040815 17.851557 L 20.040815 22.509182 L 26.520943 22.509182 C 26.241837 24.014286 25.39356 25.289528 24.118319 26.143341 L 24.118319 29.164503 L 28.00967 29.164503 C 30.286467 27.068317 31.6 23.981413 31.6 20.314505 Z"/>
        <path id="path2" fill="#34a853" stroke="none" d="M 20.040815 32.081635 C 23.291838 32.081635 26.017397 31.003376 28.009548 29.164503 L 24.118196 26.143341 C 23.040064 26.865791 21.660788 27.292637 20.040815 27.292637 C 16.904665 27.292637 14.250267 25.174538 13.303377 22.328571 L 9.280661 22.328571 L 9.280661 25.448227 C 11.261977 29.383406 15.333941 32.081635 20.040815 32.081635 Z"/>
        <path id="path3" fill="#fbbc04" stroke="none" d="M 13.303377 22.328571 C 13.062561 21.606121 12.925778 20.834427 12.925778 20.040815 C 12.925778 19.247206 13.062561 18.475512 13.303377 17.753061 L 13.303377 14.633406 L 9.280661 14.633406 C 8.465258 16.258917 8 18.09791 8 20.040815 C 8 21.983723 8.465258 23.822716 9.280661 25.448227 L 13.303377 22.328571 Z"/>
        <path id="path4" fill="#e94235" stroke="none" d="M 20.040815 12.788992 C 21.808529 12.788992 23.39575 13.396454 24.64366 14.589577 L 28.097206 11.13603 C 26.011978 9.193125 23.286299 8 20.040815 8 C 15.333941 8 11.261977 10.698227 9.280661 14.633406 L 13.303377 17.753061 C 14.250267 14.907095 16.904665 12.788992 20.040815 12.788992 Z"/>
    </g>
</svg>
