<?xml version="1.0" encoding="UTF-8"?>
<!-- Generated by Pixelmator Pro 3.7.1 -->
<svg width="246" height="246" viewBox="0 0 246 246" xmlns="http://www.w3.org/2000/svg">
    <g id="Artboard">
        <linearGradient id="linearGradient1" x1="123" y1="0" x2="123" y2="244.175517" gradientUnits="userSpaceOnUse">
            <stop offset="1e-05" stop-color="#2aabee" stop-opacity="1"/>
            <stop offset="1" stop-color="#229ed9" stop-opacity="1"/>
        </linearGradient>
        <path id="Oval" fill="url(#linearGradient1)" fill-rule="evenodd" stroke="#e0e0e0" d="M 246 123 C 246 155.621613 233.041107 186.907166 209.974136 209.974136 C 186.907166 233.041107 155.621628 246 123 246 C 90.378372 246 59.092842 233.041107 36.025867 209.974136 C 12.958892 186.907166 0 155.621613 0 123 C 0 90.378357 12.958892 59.092834 36.025867 36.025864 C 59.092842 12.958893 90.378372 0 123 0 C 155.621628 0 186.907166 12.958893 209.974136 36.025864 C 233.041107 59.092834 246 90.378357 246 123 Z"/>
        <path id="Path-3" fill="#ffffff" fill-rule="evenodd" stroke="none" d="M 55.676788 121.70163 C 91.533783 106.0793 115.444077 95.780106 127.407639 90.804062 C 161.56604 76.59639 168.663864 74.128372 173.290131 74.046875 C 174.307632 74.028946 176.582703 74.281113 178.056381 75.476913 C 179.300735 76.486618 179.643112 77.850586 179.806946 78.807892 C 179.970779 79.765213 180.174805 81.945999 180.012619 83.649994 C 178.16156 103.099213 170.152084 150.297302 166.077301 172.08075 C 164.353104 181.298141 160.95813 184.388702 157.671387 184.691132 C 150.528549 185.348434 145.104614 179.970642 138.186417 175.435699 C 127.360809 168.339371 121.245033 163.921906 110.736923 156.997192 C 98.592972 148.994507 106.465385 144.5961 113.386185 137.407867 C 115.197395 135.526672 146.668915 106.900909 147.278046 104.304092 C 147.354233 103.979324 147.424927 102.768707 146.705734 102.129456 C 145.986526 101.490219 144.925049 101.708801 144.159058 101.882675 C 143.073288 102.129105 125.779259 113.559814 92.276955 136.174835 C 87.368095 139.545624 82.921806 141.187988 78.938087 141.101913 C 74.546349 141.007034 66.098419 138.618759 59.818245 136.577332 C 52.115364 134.073425 45.993263 132.749603 46.52636 128.497192 C 46.804031 126.28228 49.854172 124.01709 55.676788 121.70163 Z"/>
    </g>
</svg>
