<?xml version="1.0" encoding="UTF-8"?>
<!-- Generated by Pixelmator Pro 3.5.8 -->
<svg width="36" height="36" viewBox="0 0 36 36" xmlns="http://www.w3.org/2000/svg">
    <path id="Ellipse" fill="#0077ff" fill-rule="evenodd" stroke="#e0e0e0" stroke-linecap="round" stroke-linejoin="round" d="M 35 18 C 35 8.611158 27.388842 1 18 1 C 8.611159 1 1 8.611158 1 18 C 1 27.38884 8.611159 35 18 35 C 27.388842 35 35 27.38884 35 18 Z"/>
    <path id="Path" fill="#ffffff" stroke="none" d="M 19.015835 26 C 12.259667 26 8.160667 20.176754 8 10.5 L 11.421833 10.5 C 11.5285 17.608301 14.131666 20.620464 16.127333 21.239845 L 16.127333 10.5 L 19.406502 10.5 L 19.406502 16.634487 C 21.331333 16.369539 23.345999 13.579124 24.023335 10.5 L 27.250835 10.5 C 26.734335 14.286341 24.541 17.076754 22.991335 18.227682 C 24.542168 19.158302 27.0375 21.59428 28 26 L 24.452335 26 C 23.703167 23.054792 21.868332 20.773815 19.407667 20.46402 L 19.407667 26 L 19.015835 26 Z"/>
</svg>
