<svg width="44" height="44" viewBox="0 0 44 44" xmlns="http://www.w3.org/2000/svg">
    <path id="Ellipse" fill="#fc3f1d" fill-rule="evenodd" stroke="#e0e0e0" stroke-linecap="round" stroke-linejoin="round" d="M 43 22 C 43 10.40202 33.59798 1 22 1 C 10.40202 1 1 10.40202 1 22 C 1 33.59798 10.40202 43 22 43 C 33.59798 43 43 33.59798 43 22 Z"/>
    <path id="Path" fill="#ffffff" stroke="none" d="M 24.7407 33.977798 L 29.0889 33.977798 L 29.0889 9.04443 L 22.759199 9.04443 C 16.3929 9.04443 13.0538 12.303001 13.0538 17.117599 C 13.0538 21.2731 15.2187 23.616301 19.0532 26.1609 L 21.3832 27.6987 L 18.3927 25.190701 L 12.4667 33.977798 L 17.181801 33.977798 L 23.511499 24.5317 L 21.309799 23.067101 C 18.649599 21.2731 17.346901 19.8818 17.346901 16.8613 C 17.346901 14.2068 19.2183 12.4128 22.777599 12.4128 L 24.7223 12.4128 L 24.7223 33.977798 L 24.7407 33.977798 Z"/>
</svg>
